<?xml version="1.0" encoding="UTF-8" standalone="no"?>
<!-- Created with Inkscape (http://www.inkscape.org/) -->

<svg
   width="210mm"
   height="297mm"
   viewBox="0 0 210 297"
   version="1.1"
   id="svg5"
   inkscape:version="1.2.1 (9c6d41e410, 2022-07-14)"
   sodipodi:docname="lexi.svg"
   xmlns:inkscape="http://www.inkscape.org/namespaces/inkscape"
   xmlns:sodipodi="http://sodipodi.sourceforge.net/DTD/sodipodi-0.dtd"
   xmlns="http://www.w3.org/2000/svg"
   xmlns:svg="http://www.w3.org/2000/svg">
  <sodipodi:namedview
     id="namedview7"
     pagecolor="#ffffff"
     bordercolor="#666666"
     borderopacity="1.0"
     inkscape:showpageshadow="2"
     inkscape:pageopacity="0.0"
     inkscape:pagecheckerboard="0"
     inkscape:deskcolor="#d1d1d1"
     inkscape:document-units="mm"
     showgrid="false"
     inkscape:zoom="1.7852694"
     inkscape:cx="650.6021"
     inkscape:cy="324.88095"
     inkscape:window-width="3440"
     inkscape:window-height="1369"
     inkscape:window-x="1912"
     inkscape:window-y="-8"
     inkscape:window-maximized="1"
     inkscape:current-layer="layer1" />
  <defs
     id="defs2" />
  <g
     inkscape:label="Layer 1"
     inkscape:groupmode="layer"
     id="layer1">
    <text
       xml:space="preserve"
       style="font-style:normal;font-variant:normal;font-weight:normal;font-stretch:normal;font-size:10.5833px;line-height:1.25;font-family:'Arial Rounded MT Bold';-inkscape-font-specification:'Arial Rounded MT Bold, Normal';font-variant-ligatures:normal;font-variant-caps:normal;font-variant-numeric:normal;font-variant-east-asian:normal;letter-spacing:0px;stroke-width:0.264583"
       x="104.48354"
       y="119.30389"
       id="text236"><tspan
         sodipodi:role="line"
         id="tspan234"
         style="font-style:normal;font-variant:normal;font-weight:normal;font-stretch:normal;font-size:10.5833px;font-family:'Arial Rounded MT Bold';-inkscape-font-specification:'Arial Rounded MT Bold, Normal';font-variant-ligatures:normal;font-variant-caps:normal;font-variant-numeric:normal;font-variant-east-asian:normal;stroke-width:0.264583"
         x="104.48354"
         y="119.30389"><tspan
           style="fill:#0088aa"
           id="tspan396">lex</tspan><tspan
           style="fill:#ff6600"
           id="tspan398">i</tspan></tspan></text>
    <text
       xml:space="preserve"
       style="font-style:normal;font-variant:normal;font-weight:normal;font-stretch:normal;font-size:10.5833px;line-height:1.25;font-family:'Cascadia Mono';-inkscape-font-specification:'Cascadia Mono, Normal';font-variant-ligatures:normal;font-variant-caps:normal;font-variant-numeric:normal;font-variant-east-asian:normal;letter-spacing:0px;stroke-width:0.264583"
       x="100.97095"
       y="132.72499"
       id="text236-0"><tspan
         sodipodi:role="line"
         id="tspan234-0"
         style="font-style:normal;font-variant:normal;font-weight:normal;font-stretch:normal;font-size:10.5833px;font-family:'Cascadia Mono';-inkscape-font-specification:'Cascadia Mono, Normal';font-variant-ligatures:normal;font-variant-caps:normal;font-variant-numeric:normal;font-variant-east-asian:normal;stroke-width:0.264583"
         x="100.97095"
         y="132.72499"><tspan
           style="font-style:normal;font-variant:normal;font-weight:normal;font-stretch:normal;font-size:10.5833px;font-family:'Cascadia Mono';-inkscape-font-specification:'Cascadia Mono, Normal';font-variant-ligatures:normal;font-variant-caps:normal;font-variant-numeric:normal;font-variant-east-asian:normal;fill:#0088aa"
           id="tspan396-3">lex</tspan><tspan
           style="font-style:normal;font-variant:normal;font-weight:normal;font-stretch:normal;font-size:10.5833px;font-family:'Cascadia Mono';-inkscape-font-specification:'Cascadia Mono, Normal';font-variant-ligatures:normal;font-variant-caps:normal;font-variant-numeric:normal;font-variant-east-asian:normal;fill:#ff6600"
           id="tspan398-0">i</tspan></tspan></text>
    <text
       xml:space="preserve"
       style="font-style:normal;font-variant:normal;font-weight:bold;font-stretch:normal;font-size:10.5833px;line-height:1.25;font-family:'Century Gothic';-inkscape-font-specification:'Century Gothic, Bold';font-variant-ligatures:normal;font-variant-caps:normal;font-variant-numeric:normal;font-variant-east-asian:normal;letter-spacing:0px;stroke-width:0.264583"
       x="101.26985"
       y="142.60461"
       id="text236-0-2"><tspan
         sodipodi:role="line"
         id="tspan234-0-6"
         style="font-style:normal;font-variant:normal;font-weight:bold;font-stretch:normal;font-size:10.5833px;font-family:'Century Gothic';-inkscape-font-specification:'Century Gothic, Bold';font-variant-ligatures:normal;font-variant-caps:normal;font-variant-numeric:normal;font-variant-east-asian:normal;stroke-width:0.264583"
         x="101.26985"
         y="142.60461"><tspan
           style="font-style:normal;font-variant:normal;font-weight:bold;font-stretch:normal;font-size:10.5833px;font-family:'Century Gothic';-inkscape-font-specification:'Century Gothic, Bold';font-variant-ligatures:normal;font-variant-caps:normal;font-variant-numeric:normal;font-variant-east-asian:normal;fill:#0088aa"
           id="tspan396-3-9">lex</tspan><tspan
           style="font-style:normal;font-variant:normal;font-weight:bold;font-stretch:normal;font-size:10.5833px;font-family:'Century Gothic';-inkscape-font-specification:'Century Gothic, Bold';font-variant-ligatures:normal;font-variant-caps:normal;font-variant-numeric:normal;font-variant-east-asian:normal;fill:#ff6600"
           id="tspan398-0-5">i</tspan></tspan></text>
    <text
       xml:space="preserve"
       style="font-style:normal;font-variant:normal;font-weight:normal;font-stretch:normal;font-size:10.5833px;line-height:1.25;font-family:Consolas;-inkscape-font-specification:'Consolas, Normal';font-variant-ligatures:normal;font-variant-caps:normal;font-variant-numeric:normal;font-variant-east-asian:normal;letter-spacing:0px;stroke-width:0.264583"
       x="101.27697"
       y="157.13892"
       id="text236-0-2-1"><tspan
         sodipodi:role="line"
         id="tspan234-0-6-0"
         style="font-style:normal;font-variant:normal;font-weight:normal;font-stretch:normal;font-size:10.5833px;font-family:Consolas;-inkscape-font-specification:'Consolas, Normal';font-variant-ligatures:normal;font-variant-caps:normal;font-variant-numeric:normal;font-variant-east-asian:normal;stroke-width:0.264583"
         x="101.27697"
         y="157.13892"><tspan
           style="font-style:normal;font-variant:normal;font-weight:normal;font-stretch:normal;font-size:10.5833px;font-family:Consolas;-inkscape-font-specification:'Consolas, Normal';font-variant-ligatures:normal;font-variant-caps:normal;font-variant-numeric:normal;font-variant-east-asian:normal;fill:#0088aa"
           id="tspan396-3-9-4">lex</tspan><tspan
           style="font-style:normal;font-variant:normal;font-weight:normal;font-stretch:normal;font-size:10.5833px;font-family:Consolas;-inkscape-font-specification:'Consolas, Normal';font-variant-ligatures:normal;font-variant-caps:normal;font-variant-numeric:normal;font-variant-east-asian:normal;fill:#ff6600"
           id="tspan398-0-5-9">i</tspan></tspan></text>
    <g
       id="g1827"
       transform="translate(-91.886228,3.8532934)"
       inkscape:export-filename="lexi.png"
       inkscape:export-xdpi="96"
       inkscape:export-ydpi="96">
      <rect
         style="opacity:0;fill:#ffffff;stroke-width:0.851563;stroke-linecap:round;stroke-linejoin:round;paint-order:markers fill stroke;stop-color:#000000"
         id="rect933-3"
         width="33.866665"
         height="33.866665"
         x="162.05783"
         y="53.489422"
         ry="0" />
      <path
         style="font-size:21.7975px;line-height:1.25;font-family:'Indie Flower';-inkscape-font-specification:'Indie Flower, Normal';letter-spacing:0px;fill:#ff6600;stroke-width:0.659749"
         d="m 190.41544,64.607612 q 0,-0.309257 0.1804,-0.386572 0.1804,-0.10309 0.46389,-0.10309 0.18039,-0.02577 0.46389,0.231944 0.30924,0.231942 0.48965,0.5412 0.20617,0.309257 0.23194,0.566973 0.0258,0.309257 -0.38657,0.3608 h -0.12885 q -0.38658,0 -0.6443,-0.05154 -0.2577,-0.05154 -0.41233,-0.154629 -0.12887,-0.128858 -0.20618,-0.3608 -0.0516,-0.231944 -0.0516,-0.644287 z"
         id="path1689" />
      <path
         id="path1680"
         style="font-size:21.7975px;line-height:1.25;font-family:'Indie Flower';-inkscape-font-specification:'Indie Flower, Normal';letter-spacing:0px;fill:#0088aa;fill-opacity:1;stroke-width:0.591923"
         d="m 191.14193,69.681971 q 0,-0.09249 0,-0.34683 0,-0.254342 0,-0.531807 0.0232,-0.277463 0.0232,-0.531805 0,-0.254342 0,-0.34683 -0.0924,-0.716781 0.41619,-0.716781 0.23123,0 0.39308,0.115609 0.16185,0.11561 0.30058,0.34683 -0.0694,1.202344 0.0924,2.335322 0.18497,1.109856 0.39307,2.219711 0.23122,1.086734 0.4162,2.19659 0.20809,1.109855 0.20809,2.3122 0,0.323707 -0.20809,0.647415 -0.18498,0.323709 -0.57805,0.323709 -0.30059,0 -0.53181,-0.508685 -0.2081,-0.531805 -0.36995,-1.317953 -0.16186,-0.80927 -0.27747,-1.780394 -0.11561,-0.971124 -0.18498,-1.84976 -0.0463,-0.901757 -0.0694,-1.595418 -0.0232,-0.716781 -0.0232,-0.971123 z m -2.98273,9.202555 q -0.62429,-0.531807 -1.1561,-1.132979 -0.53181,-0.601171 -1.08675,-1.202343 -0.55492,-0.624294 -1.13296,-1.1561 -0.57806,-0.554928 -1.29483,-0.948002 -0.32372,0 -0.60117,0.231219 -0.25436,0.208099 -0.50869,0.578051 -0.25434,0.346829 -0.48557,0.786148 -0.20809,0.416195 -0.4162,0.786147 -0.18496,0.369952 -0.34683,0.647417 -0.16184,0.277463 -0.30057,0.323707 -0.43933,-0.02313 -0.43933,-0.439318 0,-0.647416 0.34683,-1.225465 0.34684,-0.601173 0.76303,-1.109856 0.43931,-0.531807 0.78614,-0.971124 0.34683,-0.46244 0.34683,-0.832392 0,-0.02313 -0.0231,-0.04624 0,-0.02313 0,-0.04624 -0.39309,-0.369952 -0.90176,-0.855514 -0.50869,-0.485562 -1.04049,-1.017369 -0.50869,-0.554928 -0.948,-1.109854 -0.4162,-0.508685 -0.67054,-1.017369 -0.0463,-0.184976 0.0232,-0.277463 0.0463,-0.09249 0.13874,-0.138733 0.0924,-0.06937 0.20809,-0.06937 0.11562,-0.02313 0.18499,-0.02313 0.57804,0.208098 1.08673,0.670538 0.5318,0.46244 1.01736,0.971124 0.48557,0.508683 0.948,0.994245 0.48557,0.485562 0.94801,0.739904 0.46243,-0.06937 1.04049,-0.462439 0.57803,-0.416196 1.20234,-0.92488 0.62429,-0.508684 1.22545,-1.017368 0.60119,-0.531806 1.10986,-0.80927 0.5087,-0.300586 0.85553,-0.277464 0.34683,0.02313 0.48556,0.601172 0,0.11561 -0.32371,0.393074 -0.30059,0.254342 -0.76303,0.624294 -0.46244,0.369952 -1.04049,0.786148 -0.57805,0.416195 -1.13297,0.80927 -0.53181,0.393073 -0.99425,0.786147 -0.43933,0.369952 -0.67054,0.624295 0.48556,0.462439 1.13298,1.063611 0.67053,0.601172 1.31795,1.294832 0.64742,0.670538 1.17923,1.387319 0.55492,0.716783 0.80927,1.341076 -0.0924,0.231221 -0.23122,0.46244 -0.13874,0.23122 -0.4162,0.23122 -0.0463,0 -0.13874,-0.02313 -0.0694,0 -0.0924,0 z m -20.85604,-7.399039 q 0,-1.202345 0.34683,-2.289078 0.36995,-1.109856 1.04049,-1.942248 0.69366,-0.832392 1.66479,-1.317954 0.99424,-0.508683 2.28906,-0.508683 0.76303,0.09249 1.31796,0.416196 0.57805,0.323708 0.92487,0.80927 0.36996,0.462439 0.53182,1.086733 0.13874,0.601172 0.13874,1.294832 0,0.832392 -0.48557,1.50293 -0.48556,0.670537 -1.22547,1.132978 -0.73991,0.439317 -1.59542,0.693659 -0.85551,0.23122 -1.59541,0.23122 -0.27747,0 -0.57805,0 -0.27747,0 -0.50869,-0.09249 -0.23122,-0.09249 -0.36994,-0.277464 -0.13874,-0.184975 -0.13874,-0.554927 0,-0.115611 0.0232,-0.184976 0.0463,-0.09249 0.2081,-0.115611 0.16186,-0.04624 0.48556,-0.02313 0.3237,0.04624 0.87864,0.138732 0.32371,0 0.92488,-0.208098 0.6243,-0.23122 1.24859,-0.57805 0.64741,-0.34683 1.10985,-0.786148 0.46245,-0.46244 0.46245,-0.901758 0,-0.462439 -0.16186,-0.901757 -0.13873,-0.462441 -0.43933,-0.80927 -0.30057,-0.34683 -0.71677,-0.554928 -0.39307,-0.208098 -0.90176,-0.161854 -0.80927,0.06937 -1.4798,0.439318 -0.64742,0.369952 -1.10986,0.971124 -0.46244,0.578049 -0.71678,1.294832 -0.25435,0.716781 -0.25435,1.502929 0,0.601172 0.0232,1.202344 0.0232,0.601171 0.16185,1.179222 0.16186,0.57805 0.48556,1.109856 0.34683,0.531805 0.97113,0.948001 0.64741,0.393074 1.61854,0.670537 0.97112,0.254342 2.40468,0.323708 l 4.13884,-0.277462 q -0.36995,0.508682 -0.94799,0.83239 -0.55494,0.323708 -1.20235,0.531806 -0.62431,0.184976 -1.2486,0.277464 -0.62428,0.09249 -1.17921,0.09249 -1.34108,0 -2.52031,-0.439318 -1.17921,-0.439317 -2.08097,-1.225466 -0.90176,-0.809269 -1.43356,-1.942247 -0.50869,-1.1561 -0.50869,-2.589663 z m -2.33533,6.011718 q -0.23121,-1.641661 -0.30058,-3.260201 -0.0463,-1.641662 -0.0463,-3.283324 0,-1.641661 0.0463,-3.260201 0.0463,-1.61854 0.0232,-3.237078 0,-0.184976 0.13874,-0.254342 0.13872,-0.06937 0.32371,-0.06937 0.20809,0 0.36995,0.161853 0.16185,0.138733 0.27746,0.369952 0.11562,0.208099 0.16186,0.439319 0.0694,0.208098 0.0694,0.346829 0.13872,3.306446 0.18497,5.526158 0.0463,2.196589 0,3.560787 -0.0463,1.341076 -0.16186,1.988491 -0.0924,0.647417 -0.25434,0.878637 -0.16184,0.231219 -0.39307,0.184976 -0.2081,-0.04624 -0.43933,-0.09249 z" />
    </g>
    <text
       xml:space="preserve"
       style="font-style:normal;font-variant:normal;font-weight:normal;font-stretch:normal;font-size:10.5833px;line-height:1.25;font-family:Kenshi;-inkscape-font-specification:'Kenshi, Normal';font-variant-ligatures:normal;font-variant-caps:normal;font-variant-numeric:normal;font-variant-east-asian:normal;letter-spacing:0px;stroke-width:0.264583"
       x="61.95966"
       y="122.96466"
       id="text236-0-2-1-0-9"><tspan
         sodipodi:role="line"
         id="tspan234-0-6-0-8-7"
         style="font-style:normal;font-variant:normal;font-weight:normal;font-stretch:normal;font-size:10.5833px;font-family:Kenshi;-inkscape-font-specification:'Kenshi, Normal';font-variant-ligatures:normal;font-variant-caps:normal;font-variant-numeric:normal;font-variant-east-asian:normal;stroke-width:0.264583"
         x="61.95966"
         y="122.96466"><tspan
           style="font-style:normal;font-variant:normal;font-weight:normal;font-stretch:normal;font-size:10.5833px;font-family:Kenshi;-inkscape-font-specification:'Kenshi, Normal';font-variant-ligatures:normal;font-variant-caps:normal;font-variant-numeric:normal;font-variant-east-asian:normal;fill:#0088aa"
           id="tspan396-3-9-4-7-7">lex</tspan><tspan
           style="font-style:normal;font-variant:normal;font-weight:normal;font-stretch:normal;font-size:10.5833px;font-family:Kenshi;-inkscape-font-specification:'Kenshi, Normal';font-variant-ligatures:normal;font-variant-caps:normal;font-variant-numeric:normal;font-variant-east-asian:normal;fill:#ff6600"
           id="tspan398-0-5-9-1-8">i</tspan></tspan></text>
    <text
       xml:space="preserve"
       style="font-style:normal;font-variant:normal;font-weight:normal;font-stretch:normal;font-size:10.5833px;line-height:1.25;font-family:'Lucida Console';-inkscape-font-specification:'Lucida Console, Normal';font-variant-ligatures:normal;font-variant-caps:normal;font-variant-numeric:normal;font-variant-east-asian:normal;letter-spacing:0px;stroke-width:0.264583"
       x="76.28904"
       y="170.07683"
       id="text236-0-2-1-0-9-7"><tspan
         sodipodi:role="line"
         id="tspan234-0-6-0-8-7-3"
         style="font-style:normal;font-variant:normal;font-weight:normal;font-stretch:normal;font-size:10.5833px;font-family:'Lucida Console';-inkscape-font-specification:'Lucida Console, Normal';font-variant-ligatures:normal;font-variant-caps:normal;font-variant-numeric:normal;font-variant-east-asian:normal;stroke-width:0.264583"
         x="76.28904"
         y="170.07683"><tspan
           style="font-style:normal;font-variant:normal;font-weight:normal;font-stretch:normal;font-size:10.5833px;font-family:'Lucida Console';-inkscape-font-specification:'Lucida Console, Normal';font-variant-ligatures:normal;font-variant-caps:normal;font-variant-numeric:normal;font-variant-east-asian:normal;fill:#0088aa"
           id="tspan396-3-9-4-7-7-1">lex</tspan><tspan
           style="font-style:normal;font-variant:normal;font-weight:normal;font-stretch:normal;font-size:10.5833px;font-family:'Lucida Console';-inkscape-font-specification:'Lucida Console, Normal';font-variant-ligatures:normal;font-variant-caps:normal;font-variant-numeric:normal;font-variant-east-asian:normal;fill:#ff6600"
           id="tspan398-0-5-9-1-8-1">i</tspan></tspan></text>
    <text
       xml:space="preserve"
       style="font-style:normal;font-variant:normal;font-weight:normal;font-stretch:normal;font-size:10.5833px;line-height:1.25;font-family:'OCR A Extended';-inkscape-font-specification:'OCR A Extended, Normal';font-variant-ligatures:normal;font-variant-caps:normal;font-variant-numeric:normal;font-variant-east-asian:normal;letter-spacing:0px;stroke-width:0.264583"
       x="35.001148"
       y="138.1395"
       id="text236-0-2-1-0-9-7-1"><tspan
         sodipodi:role="line"
         id="tspan234-0-6-0-8-7-3-7"
         style="font-style:normal;font-variant:normal;font-weight:normal;font-stretch:normal;font-size:10.5833px;font-family:'OCR A Extended';-inkscape-font-specification:'OCR A Extended, Normal';font-variant-ligatures:normal;font-variant-caps:normal;font-variant-numeric:normal;font-variant-east-asian:normal;stroke-width:0.264583"
         x="35.001148"
         y="138.1395"><tspan
           style="font-style:normal;font-variant:normal;font-weight:normal;font-stretch:normal;font-size:10.5833px;font-family:'OCR A Extended';-inkscape-font-specification:'OCR A Extended, Normal';font-variant-ligatures:normal;font-variant-caps:normal;font-variant-numeric:normal;font-variant-east-asian:normal;fill:#0088aa"
           id="tspan396-3-9-4-7-7-1-1">lex</tspan><tspan
           style="font-style:normal;font-variant:normal;font-weight:normal;font-stretch:normal;font-size:10.5833px;font-family:'OCR A Extended';-inkscape-font-specification:'OCR A Extended, Normal';font-variant-ligatures:normal;font-variant-caps:normal;font-variant-numeric:normal;font-variant-east-asian:normal;fill:#ff6600"
           id="tspan398-0-5-9-1-8-1-9">i</tspan></tspan></text>
    <text
       xml:space="preserve"
       style="font-style:normal;font-variant:normal;font-weight:normal;font-stretch:normal;font-size:10.5833px;line-height:1.25;font-family:'Trebuchet MS';-inkscape-font-specification:'Trebuchet MS, Normal';font-variant-ligatures:normal;font-variant-caps:normal;font-variant-numeric:normal;font-variant-east-asian:normal;letter-spacing:0px;stroke-width:0.264583"
       x="37.309139"
       y="147.10033"
       id="text236-0-2-1-0-9-7-1-5"><tspan
         sodipodi:role="line"
         id="tspan234-0-6-0-8-7-3-7-4"
         style="font-style:normal;font-variant:normal;font-weight:normal;font-stretch:normal;font-size:10.5833px;font-family:'Trebuchet MS';-inkscape-font-specification:'Trebuchet MS, Normal';font-variant-ligatures:normal;font-variant-caps:normal;font-variant-numeric:normal;font-variant-east-asian:normal;stroke-width:0.264583"
         x="37.309139"
         y="147.10033"><tspan
           style="font-style:normal;font-variant:normal;font-weight:normal;font-stretch:normal;font-size:10.5833px;font-family:'Trebuchet MS';-inkscape-font-specification:'Trebuchet MS, Normal';font-variant-ligatures:normal;font-variant-caps:normal;font-variant-numeric:normal;font-variant-east-asian:normal;fill:#0088aa"
           id="tspan396-3-9-4-7-7-1-1-8">lex</tspan><tspan
           style="font-style:normal;font-variant:normal;font-weight:normal;font-stretch:normal;font-size:10.5833px;font-family:'Trebuchet MS';-inkscape-font-specification:'Trebuchet MS, Normal';font-variant-ligatures:normal;font-variant-caps:normal;font-variant-numeric:normal;font-variant-east-asian:normal;fill:#ff6600"
           id="tspan398-0-5-9-1-8-1-9-7">i</tspan></tspan></text>
    <text
       xml:space="preserve"
       style="font-style:normal;font-variant:normal;font-weight:normal;font-stretch:normal;font-size:10.5833px;line-height:1.25;font-family:'Visitor TT1 BRK';-inkscape-font-specification:'Visitor TT1 BRK, Normal';font-variant-ligatures:normal;font-variant-caps:normal;font-variant-numeric:normal;font-variant-east-asian:normal;letter-spacing:0px;stroke-width:0.264583"
       x="64.775795"
       y="132.54178"
       id="text236-0-2-1-0-9-7-1-5-7"><tspan
         sodipodi:role="line"
         id="tspan234-0-6-0-8-7-3-7-4-0"
         style="font-style:normal;font-variant:normal;font-weight:normal;font-stretch:normal;font-size:10.5833px;font-family:'Visitor TT1 BRK';-inkscape-font-specification:'Visitor TT1 BRK, Normal';font-variant-ligatures:normal;font-variant-caps:normal;font-variant-numeric:normal;font-variant-east-asian:normal;stroke-width:0.264583"
         x="64.775795"
         y="132.54178"><tspan
           style="font-style:normal;font-variant:normal;font-weight:normal;font-stretch:normal;font-size:10.5833px;font-family:'Visitor TT1 BRK';-inkscape-font-specification:'Visitor TT1 BRK, Normal';font-variant-ligatures:normal;font-variant-caps:normal;font-variant-numeric:normal;font-variant-east-asian:normal;fill:#0088aa"
           id="tspan396-3-9-4-7-7-1-1-8-8">lex</tspan><tspan
           style="font-style:normal;font-variant:normal;font-weight:normal;font-stretch:normal;font-size:10.5833px;font-family:'Visitor TT1 BRK';-inkscape-font-specification:'Visitor TT1 BRK, Normal';font-variant-ligatures:normal;font-variant-caps:normal;font-variant-numeric:normal;font-variant-east-asian:normal;fill:#ff6600"
           id="tspan398-0-5-9-1-8-1-9-7-6">i</tspan></tspan></text>
    <text
       xml:space="preserve"
       style="font-style:normal;font-variant:normal;font-weight:normal;font-stretch:normal;font-size:10.5833px;line-height:1.25;font-family:'Vladimir Script';-inkscape-font-specification:'Vladimir Script, Normal';font-variant-ligatures:normal;font-variant-caps:normal;font-variant-numeric:normal;font-variant-east-asian:normal;letter-spacing:0px;stroke-width:0.264583"
       x="85.894035"
       y="139.30368"
       id="text236-0-2-1-0-9-7-1-5-7-4"><tspan
         sodipodi:role="line"
         id="tspan234-0-6-0-8-7-3-7-4-0-0"
         style="font-style:normal;font-variant:normal;font-weight:normal;font-stretch:normal;font-size:10.5833px;font-family:'Vladimir Script';-inkscape-font-specification:'Vladimir Script, Normal';font-variant-ligatures:normal;font-variant-caps:normal;font-variant-numeric:normal;font-variant-east-asian:normal;stroke-width:0.264583"
         x="85.894035"
         y="139.30368"><tspan
           style="font-style:normal;font-variant:normal;font-weight:normal;font-stretch:normal;font-size:10.5833px;font-family:'Vladimir Script';-inkscape-font-specification:'Vladimir Script, Normal';font-variant-ligatures:normal;font-variant-caps:normal;font-variant-numeric:normal;font-variant-east-asian:normal;fill:#0088aa"
           id="tspan396-3-9-4-7-7-1-1-8-8-6">lex</tspan><tspan
           style="font-style:normal;font-variant:normal;font-weight:normal;font-stretch:normal;font-size:10.5833px;font-family:'Vladimir Script';-inkscape-font-specification:'Vladimir Script, Normal';font-variant-ligatures:normal;font-variant-caps:normal;font-variant-numeric:normal;font-variant-east-asian:normal;fill:#ff6600"
           id="tspan398-0-5-9-1-8-1-9-7-6-9">i</tspan></tspan></text>
    <text
       xml:space="preserve"
       style="font-style:normal;font-variant:normal;font-weight:normal;font-stretch:normal;font-size:10.5833px;line-height:1.25;font-family:Scriptina;-inkscape-font-specification:'Scriptina, Normal';font-variant-ligatures:normal;font-variant-caps:normal;font-variant-numeric:normal;font-variant-east-asian:normal;letter-spacing:0px;stroke-width:0.264583"
       x="64.743813"
       y="146.22256"
       id="text236-0-2-1-0-9-7-1-5-7-4-3"><tspan
         sodipodi:role="line"
         id="tspan234-0-6-0-8-7-3-7-4-0-0-9"
         style="font-style:normal;font-variant:normal;font-weight:normal;font-stretch:normal;font-size:10.5833px;font-family:Scriptina;-inkscape-font-specification:'Scriptina, Normal';font-variant-ligatures:normal;font-variant-caps:normal;font-variant-numeric:normal;font-variant-east-asian:normal;stroke-width:0.264583"
         x="64.743813"
         y="146.22256">L</tspan></text>
    <g
       id="g1608"
       transform="translate(-1.0374252,-17.636228)">
      <rect
         style="opacity:0;fill:#ffffff;stroke-width:0.851563;stroke-linecap:round;stroke-linejoin:round;paint-order:markers fill stroke;stop-color:#000000"
         id="rect933"
         width="33.866665"
         height="33.866665"
         x="70.841316"
         y="45.498505"
         ry="0" />
      <g
         id="g1599"
         transform="translate(0,0.79374999)">
        <path
           d="m 73.111869,59.000425 h 2.114594 v 5.084637 h 4.796283 v 1.778181 h -6.910877 z"
           id="path1160"
           style="font-size:9.61179px;line-height:1.25;font-family:Kenshi;-inkscape-font-specification:'Kenshi, Normal';letter-spacing:0px;fill:#0088aa;stroke-width:0.240296" />
        <path
           d="m 81.358778,65.863243 v -6.87243 h 7.401078 v 1.66284 h -5.286485 v 0.951567 h 5.04619 v 1.653228 h -5.04619 v 0.941955 h 5.286485 v 1.66284 z"
           id="path1162"
           style="font-size:9.61179px;line-height:1.25;font-family:Kenshi;-inkscape-font-specification:'Kenshi, Normal';letter-spacing:0px;fill:#0088aa;stroke-width:0.240296" />
        <path
           d="m 89.855602,58.990813 3.143055,3.364127 -3.143055,3.508303 h 2.84509 l 2.066534,-2.306829 2.066535,2.306829 h 2.84509 l -3.143055,-3.508303 3.143055,-3.364127 h -2.931596 l -1.980029,2.210712 -1.980028,-2.210712 z"
           id="path1164"
           style="font-size:9.61179px;line-height:1.25;font-family:Kenshi;-inkscape-font-specification:'Kenshi, Normal';letter-spacing:0px;fill:#0088aa;stroke-width:0.240296" />
        <path
           d="m 100.32283,65.872855 v -6.862818 h 2.1146 v 6.862818 z"
           id="path1166"
           style="font-size:9.61179px;line-height:1.25;font-family:Kenshi;-inkscape-font-specification:'Kenshi, Normal';letter-spacing:0px;fill:#0088aa;stroke-width:0.240296" />
        <circle
           style="opacity:1;fill:#ff6600;fill-opacity:1;stroke-width:1.06804;stroke-linecap:round;stroke-linejoin:round;paint-order:markers fill stroke;stop-color:#000000"
           id="path1158"
           cx="101.38013"
           cy="57.428562"
           r="1.0807064" />
      </g>
    </g>
  </g>
</svg>
